<?xml version="1.0" encoding="UTF-8"?>
<svg width="288px" height="58px" viewBox="0 0 288 58" version="1.1" xmlns="http://www.w3.org/2000/svg" xmlns:xlink="http://www.w3.org/1999/xlink">
    <title>521 Dimensions Logo Horizontal RGB</title>
    <defs>
        <linearGradient x1="12.3744615%" y1="47.2054232%" x2="95.7346511%" y2="53.2720454%" id="linearGradient-1">
            <stop stop-color="#FFFFFF" stop-opacity="0" offset="0%"></stop>
            <stop stop-color="#003DA6" offset="100%"></stop>
        </linearGradient>
        <linearGradient x1="58.0450447%" y1="27.3034435%" x2="39.9053891%" y2="77.4662918%" id="linearGradient-2">
            <stop stop-color="#FFFFFF" stop-opacity="0" offset="11%"></stop>
            <stop stop-color="#003DA6" offset="100%"></stop>
        </linearGradient>
        <linearGradient x1="59.7060746%" y1="50.973204%" x2="24.9511789%" y2="65.4573813%" id="linearGradient-3">
            <stop stop-color="#FFFFFF" stop-opacity="0" offset="0%"></stop>
            <stop stop-color="#003DA6" offset="100%"></stop>
        </linearGradient>
        <linearGradient x1="78.8292073%" y1="27.0303326%" x2="28.3230205%" y2="66.4489193%" id="linearGradient-4">
            <stop stop-color="#FFFFFF" stop-opacity="0" offset="0%"></stop>
            <stop stop-color="#003DA6" offset="100%"></stop>
        </linearGradient>
        <linearGradient x1="54.8312411%" y1="25.7497523%" x2="42.0603267%" y2="88.025585%" id="linearGradient-5">
            <stop stop-color="#FFFFFF" stop-opacity="0" offset="11%"></stop>
            <stop stop-color="#003DA6" offset="100%"></stop>
        </linearGradient>
        <linearGradient x1="15.0742957%" y1="48.0503555%" x2="102.818443%" y2="53.0173645%" id="linearGradient-6">
            <stop stop-color="#FFFFFF" stop-opacity="0" offset="0%"></stop>
            <stop stop-color="#003DA6" offset="100%"></stop>
        </linearGradient>
    </defs>
    <g id="Page-1" stroke="none" stroke-width="1" fill="none" fill-rule="evenodd">
        <g id="521-Dimensions-Logo-Horizontal-RGB" fill-rule="nonzero">
            <path d="M6.4,38.88 C2.99,38.88 0.99,36.88 0,33.72 L3.69,32.53 C4.11,33.86 4.84,35.04 6.39,35.04 C8.31,35.04 9.18,33.46 9.18,31.8 C9.24479365,31.0228911 8.97902827,30.2544665 8.44797091,29.6834371 C7.91691354,29.1124076 7.16976098,28.7916731 6.39,28.8 C5.41070446,28.7677373 4.47736481,29.2157403 3.89,30 L0.54,30 L0.54,19.12 L11.75,19.12 L11.75,22.93 L4.17,22.93 L4.17,25.78 C4.89568627,25.3312041 5.73710879,25.1052021 6.59,25.13 C10.73,25.13 13.1000323,27.95 13.1000323,31.81 C13.11,36 10.8,38.88 6.4,38.88 Z" id="Path" fill="#003DA6"></path>
            <path d="M29.13,38.8 L16.67,38.8 L16.67,36.29 C16.67,29.52 24.87,27.38 24.87,24.73 C24.8319484,24.1517368 24.5620699,23.6133214 24.121539,23.2367993 C23.6810082,22.8602772 23.1071342,22.6775365 22.53,22.73 C21.18,22.73 20.22,24 19.71,25.07 L16.33,23.07 C17.68,20.45 19.43,18.87 22.5,18.87 C26.08,18.87 28.87,20.99 28.87,24.73 C28.87,29.97 22.19,30.93 21.2,34.99 L29.12,34.99 L29.13,38.8 Z" id="Path" fill="#003DA6"></path>
            <polygon id="Path" fill="#003DA6" points="40.34 38.8 36.47 38.8 36.47 24.16 34 25.55 32.2 22.55 37.47 19.16 40.35 19.16"></polygon>
            <path d="M123.86,38.6 L118.35,38.6 L118.35,19.09 L123.86,19.09 C131.41,19.09 133.17,21.47 133.17,28.85 C133.17,36.23 131.41,38.6 123.86,38.6 Z M128.62,24.26 C128.03,23.26 126.89,23.03 124.76,23.03 L122.36,23.03 L122.36,34.66 L124.76,34.66 C126.91,34.66 128.06,34.35 128.65,33.35 C129.04,32.68 129.18,31.75 129.18,28.88 C129.18,26.01 129,25 128.61,24.26 L128.62,24.26 Z" id="Shape" fill="#00A0FF"></path>
            <polygon id="Path" fill="#00A0FF" points="141.77 38.6 137.77 38.6 137.77 19.09 141.77 19.09"></polygon>
            <polygon id="Path" fill="#00A0FF" points="164.71 38.6 160.71 38.6 160.71 29.43 156.96 38.6 154.47 38.6 150.75 29.43 150.75 38.6 146.75 38.6 146.75 19.09 150.55 19.09 155.72 32.09 161.01 19.09 164.76 19.09"></polygon>
            <polygon id="Path" fill="#00A0FF" points="183.08 38.6 169.69 38.6 169.69 19.09 183.08 19.09 183.08 23 173.69 23 173.69 26.66 181.88 26.66 181.88 30.43 173.69 30.43 173.69 34.62 183.08 34.62"></polygon>
            <polygon id="Path" fill="#00A0FF" points="202.06 38.6 198.84 38.6 191.71 27.47 191.71 38.6 187.71 38.6 187.71 19.09 191 19.09 198.1 30.22 198.1 19.09 202.1 19.09"></polygon>
            <path d="M214,38.88 C209.86,38.88 207.12,36.88 206.11,32.95 L209.89,32.19 C210.45,34.19 211.89,35.07 214,35.07 C215.45,35.07 217.33,34.32 217.33,32.61 C217.33,29.09 206.73,31.52 206.73,24.48 C206.73,20.7 210.11,18.86 213.47,18.86 C217.02,18.86 219.23,20.2 220.77,23.33 L217.33,24.92 C216.681793,23.3887658 215.127907,22.442747 213.47,22.57 C212.38,22.57 210.73,23.07 210.73,24.47 C210.73,27.47 221.330021,25.47 221.330021,32.6 C221.34,36.65 217.7,38.88 214,38.88 Z" id="Path" fill="#00A0FF"></path>
            <polygon id="Path" fill="#00A0FF" points="229.46 38.6 225.46 38.6 225.46 19.09 229.46 19.09"></polygon>
            <path d="M241.92,38.83 C236.02,38.83 233.76,34.05 233.76,28.83 C233.76,23.61 236.02,18.83 241.92,18.83 C247.82,18.83 250.08,23.61 250.08,28.83 C250.08,34.05 247.82,38.83 241.92,38.83 Z M241.92,22.83 C238.4,22.83 237.78,26.05 237.78,28.83 C237.78,31.61 238.4,34.83 241.92,34.83 C245.44,34.83 246.06,31.62 246.06,28.83 C246.06,26.04 245.47,22.8 241.92,22.8 L241.92,22.83 Z" id="Shape" fill="#00A0FF"></path>
            <polygon id="Path" fill="#00A0FF" points="268.72 38.6 265.5 38.6 258.37 27.47 258.37 38.6 254.37 38.6 254.37 19.09 257.62 19.09 264.72 30.22 264.72 19.09 268.72 19.09"></polygon>
            <path d="M280.68,38.88 C276.54,38.88 273.8,36.88 272.79,32.95 L276.57,32.19 C277.13,34.19 278.57,35.07 280.68,35.07 C282.13,35.07 284.01,34.32 284.01,32.61 C284.01,29.09 273.41,31.52 273.41,24.48 C273.41,20.7 276.79,18.86 280.15,18.86 C283.7,18.86 285.91,20.2 287.45,23.33 L284,24.93 C283.351793,23.3987658 281.797907,22.452747 280.14,22.58 C279.05,22.58 277.4,23.08 277.4,24.48 C277.4,27.48 288,25.48 288,32.61 C288,36.65 284.37,38.88 280.68,38.88 Z" id="Path" fill="#00A0FF"></path>
            <path d="M104.55,19.74 L100.07,22.74 C99.8072044,22.9123372 99.6492197,23.2057373 99.65,23.52 L99.65,26.75 C99.657707,27.102589 99.4791187,27.4331674 99.18,27.62 L84.51,37.33 C84.2791197,37.4837264 84.1402905,37.742624 84.14,38.02 L84.14,43.14 C84.1405222,43.293999 84.2252832,43.4353624 84.3608757,43.5083738 C84.4964681,43.5813851 84.6611446,43.5743342 84.79,43.49 L104.85,30.18 C105.183747,29.9559791 105.385729,29.5819379 105.39,29.18 L105.39,20.2 C105.387367,20.0016914 105.278173,19.8201587 105.104222,19.7248998 C104.93027,19.6296409 104.718506,19.6354106 104.55,19.74 L104.55,19.74 Z" id="Path" fill="#00A0FF"></path>
            <path d="M104.55,19.74 L100.07,22.74 C99.8072044,22.9123372 99.6492197,23.2057373 99.65,23.52 L99.65,26.75 C99.657707,27.102589 99.4791187,27.4331674 99.18,27.62 L84.51,37.33 C84.2791197,37.4837264 84.1402905,37.742624 84.14,38.02 L84.14,43.14 C84.1405222,43.293999 84.2252832,43.4353624 84.3608757,43.5083738 C84.4964681,43.5813851 84.6611446,43.5743342 84.79,43.49 L104.85,30.18 C105.183747,29.9559791 105.385729,29.5819379 105.39,29.18 L105.39,20.2 C105.387367,20.0016914 105.278173,19.8201587 105.104222,19.7248998 C104.93027,19.6296409 104.718506,19.6354106 104.55,19.74 L104.55,19.74 Z" id="Path" fill="url(#linearGradient-1)" style="mix-blend-mode: multiply;"></path>
            <path d="M53.25,18.55 L53.25,28.55 C53.2436829,29.1278939 53.5247101,29.6712132 54,30 L63.17,36.12 C63.4148308,36.2819548 63.5614811,36.556454 63.56,36.85 L63.56,40.66 C63.5629239,40.7585153 63.5098931,40.8502146 63.423047,40.8968149 C63.336201,40.9434152 63.230472,40.9369042 63.15,40.88 L54.15,34.88 C53.9662776,34.7641414 53.7342848,34.7566214 53.543445,34.8603387 C53.3526051,34.964056 53.2327199,35.1628141 53.2299992,35.38 L53.2299992,39.62 C53.2294969,40.0914925 53.4614391,40.5329309 53.85,40.8 L67.78,50.33 C68.0887597,50.555942 68.4993737,50.5859085 68.8376655,50.4071883 C69.1759574,50.2284681 69.3826238,49.8723911 69.37,49.49 L69.37,34.46 C69.3683785,33.8062158 69.0375667,33.1972214 68.49,32.84 L59.83,27.16 C59.4241253,26.8958606 59.179506,26.4442558 59.18,25.96 L59.18,22.23 C59.1807707,21.9884902 59.242696,21.7511098 59.36,21.54 L53.46,17.67 C53.3149496,17.9401887 53.2425857,18.2434277 53.25,18.55 Z" id="Path" fill="#00A0FF"></path>
            <path d="M53.25,18.55 L53.25,28.55 C53.2436829,29.1278939 53.5247101,29.6712132 54,30 L63.17,36.12 C63.4148308,36.2819548 63.5614811,36.556454 63.56,36.85 L63.56,40.66 C63.5629239,40.7585153 63.5098931,40.8502146 63.423047,40.8968149 C63.336201,40.9434152 63.230472,40.9369042 63.15,40.88 L54.15,34.88 C53.9662776,34.7641414 53.7342848,34.7566214 53.543445,34.8603387 C53.3526051,34.964056 53.2327199,35.1628141 53.2299992,35.38 L53.2299992,39.62 C53.2294969,40.0914925 53.4614391,40.5329309 53.85,40.8 L67.78,50.33 C68.0887597,50.555942 68.4993737,50.5859085 68.8376655,50.4071883 C69.1759574,50.2284681 69.3826238,49.8723911 69.37,49.49 L69.37,34.46 C69.3683785,33.8062158 69.0375667,33.1972214 68.49,32.84 L59.83,27.16 C59.4241253,26.8958606 59.179506,26.4442558 59.18,25.96 L59.18,22.23 C59.1807707,21.9884902 59.242696,21.7511098 59.36,21.54 L53.46,17.67 C53.3149496,17.9401887 53.2425857,18.2434277 53.25,18.55 Z" id="Path" fill="url(#linearGradient-2)" style="mix-blend-mode: multiply;"></path>
            <path d="M101.85,14.79 L80.75,0.73 C80.082535,0.290439078 79.217465,0.290439078 78.55,0.73 L54,17.08 C53.7737018,17.2317159 53.5854818,17.4336247 53.45,17.67 L59.35,21.54 C59.4609391,21.3387992 59.6187255,21.1672922 59.81,21.04 L78.81,8.36 C79.288855,8.04263087 79.911145,8.04263087 80.39,8.36 L96.1,18.82 C96.4471643,19.067178 96.9128357,19.067178 97.26,18.82 L101.79,15.82 C101.973272,15.7187459 102.091804,15.5305703 102.103981,15.3215426 C102.116157,15.1125148 102.020275,14.9118491 101.85,14.79 L101.85,14.79 Z" id="Path" fill="#00A0FF"></path>
            <path d="M101.85,14.79 L80.75,0.73 C80.082535,0.290439078 79.217465,0.290439078 78.55,0.73 L54,17.08 C53.7737018,17.2317159 53.5854818,17.4336247 53.45,17.67 L59.35,21.54 C59.4609391,21.3387992 59.6187255,21.1672922 59.81,21.04 L78.81,8.36 C79.288855,8.04263087 79.911145,8.04263087 80.39,8.36 L96.1,18.82 C96.4471643,19.067178 96.9128357,19.067178 97.26,18.82 L101.79,15.82 C101.973272,15.7187459 102.091804,15.5305703 102.103981,15.3215426 C102.116157,15.1125148 102.020275,14.9118491 101.85,14.79 L101.85,14.79 Z" id="Path" fill="url(#linearGradient-3)" style="mix-blend-mode: multiply;"></path>
            <path d="M80.69,34.45 L94.74,25.09 C94.9998825,24.920068 95.1565122,24.630509 95.1565122,24.32 C95.1565122,24.009491 94.9998825,23.719932 94.74,23.55 L80.43,14 C79.96979,13.6931579 79.37021,13.6931579 78.91,14 L64.67,23.5 C64.4564388,23.6452235 64.3286057,23.88674 64.3286057,24.145 C64.3286057,24.40326 64.4564388,24.6447765 64.67,24.79 L69.1,27.71 C69.4577878,27.9464846 69.9222122,27.9464846 70.28,27.71 L79.38,21.58 C79.6826622,21.3777753 80.0773378,21.3777753 80.38,21.58 L83.7,23.8 C83.8297952,23.8896138 83.9072822,24.0372742 83.9072822,24.195 C83.9072822,24.3527258 83.8297952,24.5003862 83.7,24.59 L74.7,30.43 C74.4269044,30.6110916 74.2007023,30.8544302 74.04,31.14 L80.11,35.14 C80.2438351,34.865924 80.443017,34.6289662 80.69,34.45 L80.69,34.45 Z" id="Path" fill="#00A0FF"></path>
            <path d="M80.69,34.45 L94.74,25.09 C94.9998825,24.920068 95.1565122,24.630509 95.1565122,24.32 C95.1565122,24.009491 94.9998825,23.719932 94.74,23.55 L80.43,14 C79.96979,13.6931579 79.37021,13.6931579 78.91,14 L64.67,23.5 C64.4564388,23.6452235 64.3286057,23.88674 64.3286057,24.145 C64.3286057,24.40326 64.4564388,24.6447765 64.67,24.79 L69.1,27.71 C69.4577878,27.9464846 69.9222122,27.9464846 70.28,27.71 L79.38,21.58 C79.6826622,21.3777753 80.0773378,21.3777753 80.38,21.58 L83.7,23.8 C83.8297952,23.8896138 83.9072822,24.0372742 83.9072822,24.195 C83.9072822,24.3527258 83.8297952,24.5003862 83.7,24.59 L74.7,30.43 C74.4269044,30.6110916 74.2007023,30.8544302 74.04,31.14 L80.11,35.14 C80.2438351,34.865924 80.443017,34.6289662 80.69,34.45 L80.69,34.45 Z" id="Path" fill="url(#linearGradient-4)" style="mix-blend-mode: multiply;"></path>
            <path d="M79.87,56.37 L79.87,36 C79.8691699,35.692955 79.9447758,35.3905314 80.09,35.12 L74.02,31.12 C73.8467082,31.4250655 73.7537995,31.7691716 73.75,32.12 L73.75,53.2 C73.751286,53.7754635 74.0402751,54.3121574 74.52,54.63 L78.52,57.28 C79.0919495,57.6624751 79.8380505,57.6624751 80.41,57.28 L81.12,56.81 C80.4,57.31 79.87,57.17 79.87,56.37 Z" id="Path" fill="#00A0FF"></path>
            <path d="M79.87,56.37 L79.87,36 C79.8691699,35.692955 79.9447758,35.3905314 80.09,35.12 L74.02,31.12 C73.8467082,31.4250655 73.7537995,31.7691716 73.75,32.12 L73.75,53.2 C73.751286,53.7754635 74.0402751,54.3121574 74.52,54.63 L78.52,57.28 C79.0919495,57.6624751 79.8380505,57.6624751 80.41,57.28 L81.12,56.81 C80.4,57.31 79.87,57.17 79.87,56.37 Z" id="Path" fill="url(#linearGradient-5)" style="mix-blend-mode: multiply;"></path>
            <path d="M104.58,34.85 L80.67,50.55 C80.5111569,50.6515348 80.3098005,50.6591457 80.1437459,50.5698913 C79.9776914,50.480637 79.8729501,50.3084987 79.87,50.12 L79.87,56.36 C79.87,57.17 80.4,57.3 81.11,56.83 L104.78,41.05 C105.175294,40.7832024 105.411571,40.3369027 105.410165,39.86 L105.410165,35.3 C105.414957,35.1008906 105.307868,34.9158113 105.132775,34.8208815 C104.957682,34.7259517 104.74415,34.7372 104.58,34.85 L104.58,34.85 Z" id="Path" fill="#00A0FF"></path>
            <path d="M104.58,34.85 L80.67,50.55 C80.5111569,50.6515348 80.3098005,50.6591457 80.1437459,50.5698913 C79.9776914,50.480637 79.8729501,50.3084987 79.87,50.12 L79.87,56.36 C79.87,57.17 80.4,57.3 81.11,56.83 L104.78,41.05 C105.175294,40.7832024 105.411571,40.3369027 105.410165,39.86 L105.410165,35.3 C105.414957,35.1008906 105.307868,34.9158113 105.132775,34.8208815 C104.957682,34.7259517 104.74415,34.7372 104.58,34.85 L104.58,34.85 Z" id="Path" fill="url(#linearGradient-6)" style="mix-blend-mode: multiply;"></path>
        </g>
    </g>
</svg>