<svg xmlns="http://www.w3.org/2000/svg" xmlns:xlink="http://www.w3.org/1999/xlink" viewBox="0 0 360 360"><defs><style>.a{isolation:isolate;}.b{fill:#003da6;}.c{fill:#00a0ff;}.d,.e,.f,.g,.h,.i{mix-blend-mode:multiply;}.d{fill:url(#a);}.e{fill:url(#b);}.f{fill:url(#c);}.g{fill:url(#d);}.h{fill:url(#e);}.i{fill:url(#f);}</style><linearGradient id="a" x1="120.65" y1="181.94" x2="143.06" y2="183.39" gradientUnits="userSpaceOnUse"><stop offset="0" stop-color="#fff" stop-opacity="0"/><stop offset="1" stop-color="#003da6"/></linearGradient><linearGradient id="b" x1="102.68" y1="177.64" x2="90.55" y2="194.12" gradientUnits="userSpaceOnUse"><stop offset="0.11" stop-color="#fff" stop-opacity="0"/><stop offset="1" stop-color="#003da6"/></linearGradient><linearGradient id="c" x1="118.5" y1="163.06" x2="101.59" y2="179.28" xlink:href="#a"/><linearGradient id="d" x1="124.63" y1="165.24" x2="109.06" y2="182.77" xlink:href="#a"/><linearGradient id="e" x1="118.02" y1="188.93" x2="105.9" y2="205.4" gradientUnits="userSpaceOnUse"><stop offset="0.11" stop-color="#fff" stop-opacity="0"/><stop offset="1" stop-color="#003da6"/></linearGradient><linearGradient id="f" x1="119.72" y1="196.36" x2="142.13" y2="197.81" xlink:href="#a"/></defs><title>521 Dimensions Logo Horizontal RGB</title><g class="a"><path class="b" d="M42.4,189.88c-3.41,0-5.41-2-6.4-5.16l3.69-1.19c.42,1.33,1.15,2.51,2.7,2.51,1.92,0,2.79-1.58,2.79-3.24a2.77,2.77,0,0,0-2.79-3A3,3,0,0,0,39.89,181H36.54V170.12H47.75v3.81H40.17v2.85a4.36,4.36,0,0,1,2.42-.65c4.14,0,6.51,2.82,6.51,6.68C49.11,187,46.8,189.88,42.4,189.88Z"/><path class="b" d="M65.13,189.8H52.67v-2.51c0-6.77,8.2-8.91,8.2-11.56a2.15,2.15,0,0,0-2.34-2c-1.35,0-2.31,1.27-2.82,2.34l-3.38-2c1.35-2.62,3.1-4.2,6.17-4.2,3.58,0,6.37,2.12,6.37,5.86,0,5.24-6.68,6.2-7.67,10.26h7.92Z"/><path class="b" d="M76.34,189.8H72.47V175.16L70,176.55l-1.8-3,5.27-3.39h2.88Z"/><path class="c" d="M159.86,189.6h-5.51V170.09h5.51c7.55,0,9.31,2.38,9.31,9.76S167.41,189.6,159.86,189.6Zm4.76-14.34c-.59-1-1.73-1.23-3.86-1.23h-2.4v11.63h2.4c2.15,0,3.3-.31,3.89-1.31.39-.67.53-1.6.53-4.47S165,176,164.61,175.26Z"/><path class="c" d="M177.77,189.6h-4V170.09h4Z"/><path class="c" d="M200.71,189.6h-4v-9.17l-3.75,9.17h-2.49l-3.72-9.17v9.17h-4V170.09h3.8l5.17,13,5.29-13h3.75Z"/><path class="c" d="M219.08,189.6H205.69V170.09h13.39V174h-9.39v3.66h8.19v3.77h-8.19v4.19h9.39Z"/><path class="c" d="M238.06,189.6h-3.22l-7.13-11.13V189.6h-4V170.09H227l7.1,11.13V170.09h4Z"/><path class="c" d="M250,189.88c-4.14,0-6.88-2-7.89-5.93l3.78-.76c.56,2,2,2.88,4.11,2.88,1.45,0,3.33-.75,3.33-2.46,0-3.52-10.6-1.09-10.6-8.13,0-3.78,3.38-5.62,6.74-5.62,3.55,0,5.76,1.34,7.3,4.47l-3.44,1.59a3.87,3.87,0,0,0-3.86-2.35c-1.09,0-2.74.5-2.74,1.9,0,3,10.6,1,10.6,8.13C257.34,187.65,253.7,189.88,250,189.88Z"/><path class="c" d="M265.46,189.6h-4V170.09h4Z"/><path class="c" d="M277.92,189.83c-5.9,0-8.16-4.78-8.16-10s2.26-10,8.16-10,8.16,4.78,8.16,10S283.82,189.83,277.92,189.83Zm0-16c-3.52,0-4.14,3.22-4.14,6s.62,6,4.14,6,4.14-3.21,4.14-6S281.47,173.8,277.92,173.8Z"/><path class="c" d="M304.72,189.6H301.5l-7.13-11.13V189.6h-4V170.09h3.25l7.1,11.13V170.09h4Z"/><path class="c" d="M316.68,189.88c-4.14,0-6.88-2-7.89-5.93l3.78-.76c.56,2,2,2.88,4.11,2.88,1.45,0,3.33-.75,3.33-2.46,0-3.52-10.6-1.09-10.6-8.13,0-3.78,3.38-5.62,6.74-5.62,3.55,0,5.76,1.34,7.3,4.47L320,175.93a3.87,3.87,0,0,0-3.86-2.35c-1.09,0-2.74.5-2.74,1.9,0,3,10.6,1,10.6,8.13C324,187.65,320.37,189.88,316.68,189.88Z"/><path class="c" d="M140.55,170.74l-4.48,3a.93.93,0,0,0-.42.78v3.23a1,1,0,0,1-.47.87l-14.67,9.71a.83.83,0,0,0-.37.69v5.12a.42.42,0,0,0,.65.35l20.06-13.31a1.22,1.22,0,0,0,.54-1V171.2A.55.55,0,0,0,140.55,170.74Z"/><path class="d" d="M140.55,170.74l-4.48,3a.93.93,0,0,0-.42.78v3.23a1,1,0,0,1-.47.87l-14.67,9.71a.83.83,0,0,0-.37.69v5.12a.42.42,0,0,0,.65.35l20.06-13.31a1.22,1.22,0,0,0,.54-1V171.2A.55.55,0,0,0,140.55,170.74Z"/><path class="c" d="M89.25,169.55v10A1.74,1.74,0,0,0,90,181l9.17,6.12a.87.87,0,0,1,.39.73v3.81a.26.26,0,0,1-.41.22l-9-6a.6.6,0,0,0-.92.5v4.24a1.43,1.43,0,0,0,.62,1.18l13.93,9.53a1,1,0,0,0,1.59-.84V185.46a1.94,1.94,0,0,0-.88-1.62l-8.66-5.68a1.43,1.43,0,0,1-.65-1.2v-3.73a1.43,1.43,0,0,1,.18-.69l-5.9-3.87A1.77,1.77,0,0,0,89.25,169.55Z"/><path class="e" d="M89.25,169.55v10A1.74,1.74,0,0,0,90,181l9.17,6.12a.87.87,0,0,1,.39.73v3.81a.26.26,0,0,1-.41.22l-9-6a.6.6,0,0,0-.92.5v4.24a1.43,1.43,0,0,0,.62,1.18l13.93,9.53a1,1,0,0,0,1.59-.84V185.46a1.94,1.94,0,0,0-.88-1.62l-8.66-5.68a1.43,1.43,0,0,1-.65-1.2v-3.73a1.43,1.43,0,0,1,.18-.69l-5.9-3.87A1.77,1.77,0,0,0,89.25,169.55Z"/><path class="c" d="M137.85,165.79l-21.1-14.06a2,2,0,0,0-2.2,0L90,168.08a1.77,1.77,0,0,0-.55.59l5.9,3.87a1.43,1.43,0,0,1,.46-.5l19-12.68a1.43,1.43,0,0,1,1.58,0l15.71,10.46a1,1,0,0,0,1.16,0l4.53-3A.61.61,0,0,0,137.85,165.79Z"/><path class="f" d="M137.85,165.79l-21.1-14.06a2,2,0,0,0-2.2,0L90,168.08a1.77,1.77,0,0,0-.55.59l5.9,3.87a1.43,1.43,0,0,1,.46-.5l19-12.68a1.43,1.43,0,0,1,1.58,0l15.71,10.46a1,1,0,0,0,1.16,0l4.53-3A.61.61,0,0,0,137.85,165.79Z"/><path class="c" d="M116.69,185.45l14.05-9.36a.92.92,0,0,0,0-1.54L116.43,165a1.37,1.37,0,0,0-1.52,0l-14.24,9.5a.78.78,0,0,0,0,1.29l4.43,2.92a1.07,1.07,0,0,0,1.18,0l9.1-6.13a.9.9,0,0,1,1,0l3.32,2.22a.48.48,0,0,1,0,.79l-9,5.84a2.07,2.07,0,0,0-.66.71l6.07,4A1.86,1.86,0,0,1,116.69,185.45Z"/><path class="g" d="M116.69,185.45l14.05-9.36a.92.92,0,0,0,0-1.54L116.43,165a1.37,1.37,0,0,0-1.52,0l-14.24,9.5a.78.78,0,0,0,0,1.29l4.43,2.92a1.07,1.07,0,0,0,1.18,0l9.1-6.13a.9.9,0,0,1,1,0l3.32,2.22a.48.48,0,0,1,0,.79l-9,5.84a2.07,2.07,0,0,0-.66.71l6.07,4A1.86,1.86,0,0,1,116.69,185.45Z"/><path class="c" d="M115.87,207.37V187a1.85,1.85,0,0,1,.22-.88l-6.07-4a2.07,2.07,0,0,0-.27,1v21.08a1.72,1.72,0,0,0,.77,1.43l4,2.65a1.7,1.7,0,0,0,1.89,0l.71-.47C116.4,208.31,115.87,208.17,115.87,207.37Z"/><path class="h" d="M115.87,207.37V187a1.85,1.85,0,0,1,.22-.88l-6.07-4a2.07,2.07,0,0,0-.27,1v21.08a1.72,1.72,0,0,0,.77,1.43l4,2.65a1.7,1.7,0,0,0,1.89,0l.71-.47C116.4,208.31,115.87,208.17,115.87,207.37Z"/><path class="c" d="M140.58,185.85l-23.91,15.7a.52.52,0,0,1-.8-.43v6.24c0,.81.53.94,1.24.47l23.67-15.78a1.43,1.43,0,0,0,.63-1.19V186.3A.53.53,0,0,0,140.58,185.85Z"/><path class="i" d="M140.58,185.85l-23.91,15.7a.52.52,0,0,1-.8-.43v6.24c0,.81.53.94,1.24.47l23.67-15.78a1.43,1.43,0,0,0,.63-1.19V186.3A.53.53,0,0,0,140.58,185.85Z"/></g></svg>