<?xml version="1.0" encoding="UTF-8"?>
<svg width="54px" height="50px" viewBox="0 0 54 50" version="1.1" xmlns="http://www.w3.org/2000/svg" xmlns:xlink="http://www.w3.org/1999/xlink">
    <!-- Generator: Sketch 57.1 (83088) - https://sketch.com -->
    <title>Shape</title>
    <desc>Created with Sketch.</desc>
    <g id="01.00:-Homepage" stroke="none" stroke-width="1" fill="none" fill-rule="evenodd">
        <g id="HD_00:-Homepage" transform="translate(-1142.000000, -788.000000)" fill="#2867B2" fill-rule="nonzero">
            <g id="Right-Side" transform="translate(820.000000, 164.000000)">
                <g id="Stay-In-touch" transform="translate(67.000000, 570.000000)">
                    <g id="Social" transform="translate(77.000000, 54.000000)">
                        <g id="LinkedIn" transform="translate(178.000000, 0.000000)">
                            <path d="M6.97674419,0.0113553488 C2.94186047,0.0113553488 0.0113553488,2.42932407 0.0113553488,5.75490558 C0.0113553488,9.09211512 3.01162791,11.6165512 6.97674419,11.6165512 C11.0116279,11.6165512 13.9421326,9.15188953 13.9421326,5.68677326 C13.756086,2.34956395 10.8837209,0.0113553488 6.97674419,0.0113553488 Z M1.1627907,13.9534884 C0.523255814,13.9534884 0,14.4767442 0,15.1162791 L0,48.8372093 C0,49.4767442 0.523255814,50 1.1627907,50 L12.7906977,50 C13.4302326,50 13.9534884,49.4767442 13.9534884,48.8372093 L13.9534884,15.1162791 C13.9534884,14.4767442 13.4302326,13.9534884 12.7906977,13.9534884 L1.1627907,13.9534884 Z M18.6046512,13.9534884 C17.9651163,13.9534884 17.4418605,14.4767442 17.4418605,15.1162791 L17.4418605,48.8372093 C17.4418605,49.4767442 17.9651163,50 18.6046512,50 L29.0697674,50 C29.7116279,50 30.2325581,49.4790698 30.2325581,48.8372093 L30.2325581,31.3953488 L30.2325581,31.1046512 L30.2325581,30.8139535 C30.2325581,28.0581395 32.349564,25.8134081 35.0472384,25.6041058 C35.1867733,25.58085 35.3255814,25.5813953 35.4651163,25.5813953 C35.6046512,25.5813953 35.7434593,25.58085 35.8829942,25.6041058 C38.5806686,25.8134081 40.6976744,28.0581395 40.6976744,30.8139535 L40.6976744,48.8372093 C40.6976744,49.4790698 41.2186047,50 41.8604651,50 L52.3255814,50 C52.9651163,50 53.4883721,49.4767442 53.4883721,48.8372093 L53.4883721,29.0697674 C53.4883721,21.5465116 49.4523988,13.9534884 40.4523977,13.9534884 C36.3593744,13.9534884 33.2674419,15.5351558 31.3953488,16.8491093 L31.3953488,15.1162791 C31.3953488,14.4767442 30.872093,13.9534884 30.2325581,13.9534884 L18.6046512,13.9534884 Z" id="Shape"></path>
                        </g>
                    </g>
                </g>
            </g>
        </g>
    </g>
</svg>