<?xml version="1.0" encoding="UTF-8"?>
<svg width="50px" height="50px" viewBox="0 0 50 50" version="1.1" xmlns="http://www.w3.org/2000/svg" xmlns:xlink="http://www.w3.org/1999/xlink">
    <!-- Generator: Sketch 61.2 (89653) - https://sketch.com -->
    <title>Artboard</title>
    <desc>Created with Sketch.</desc>
    <g id="Artboard" stroke="none" stroke-width="1" fill="none" fill-rule="evenodd">
        <g id="rss" fill-rule="nonzero">
            <path d="M50,43.0555556 C50,46.9444444 46.9444444,50 43.0555556,50 L6.94444444,50 C3.05555556,50 0,46.9444444 0,43.0555556 L0,6.94444444 C0,3.05555556 3.05555556,0 6.94444444,0 L43.0555556,0 C46.9444444,0 50,3.05555556 50,6.94444444 L50,43.0555556 Z" id="Path" fill="#FF9800"></path>
            <path d="M17,38 C17,35.2857143 14.7142857,33 12,33 C9.28571429,33 7,35.2857143 7,38 C7,40.7142857 9.28571429,43 12,43 C14.7142857,43 17,40.7142857 17,38 Z" id="Path" fill="#FFFFFF"></path>
            <path d="M29,43 L23.5,43 L23.5,41.625 C23.5,32.9625 17.0375,26.5 8.375,26.5 L7,26.5 L7,21 L8.375,21 C20.2,21 29,29.8 29,41.625 L29,43 Z" id="Path" fill="#FFFFFF"></path>
            <path d="M43,43 L37.4615385,43 L37.4615385,41.6153846 C37.4615385,25.5538462 24.4461538,12.5384615 8.38461538,12.5384615 L7,12.5384615 L7,7 L8.38461538,7 C27.4923077,7 43,22.5076923 43,41.6153846 L43,43 Z" id="Path" fill="#FFFFFF"></path>
        </g>
    </g>
</svg>