<?xml version="1.0" encoding="UTF-8"?>
<svg width="1114px" height="220px" viewBox="0 0 1114 220" version="1.1" xmlns="http://www.w3.org/2000/svg" xmlns:xlink="http://www.w3.org/1999/xlink">
    <title>Server Side Up Logo - Horizontal Light BG</title>
    <g id="Logo" stroke="none" stroke-width="1" fill="none" fill-rule="evenodd">
        <g id="Horizontal-Light-BG" transform="translate(-167.000000, -65.000000)">
            <g id="Server-Side-Up-Logo---Horizontal-Light-BG" transform="translate(167.000000, 65.000000)">
                <g id="Screen" transform="translate(844.000000, 0.000000)">
                    <rect id="ScreenBG" fill="#282828" x="0" y="0" width="270" height="220" rx="10"></rect>
                    <g id="Content" transform="translate(48.000000, 61.000000)" fill="#3FF000">
                        <rect id="Rectangle" x="138" y="97" width="54" height="8"></rect>
                        <path d="M34,102.4 C39.2266667,102.4 43.8933333,101.676667 48,100.23 C52.1066667,98.7833333 55.63,96.7066667 58.57,94 C61.51,91.2933333 63.75,88.0033333 65.29,84.13 C66.83,80.2566667 67.6,75.8933333 67.6,71.04 L67.6,71.04 L67.6,0.2 L46.6,0.2 L46.6,70.9 C46.6,75.1933333 45.48,78.4833333 43.24,80.77 C41,83.0566667 37.92,84.2 34,84.2 C29.9866667,84.2 26.8833333,83.0566667 24.69,80.77 C22.4966667,78.4833333 21.4,75.1933333 21.4,70.9 L21.4,70.9 L21.4,0.2 L0.4,0.2 L0.4,71.04 C0.4,75.8933333 1.17,80.2566667 2.71,84.13 C4.25,88.0033333 6.49,91.2933333 9.43,94 C12.37,96.7066667 15.9166667,98.7833333 20.07,100.23 C24.2233333,101.676667 28.8666667,102.4 34,102.4 Z M105.82,101 L105.82,63.2 L120.1,63.2 C125.606667,63.2 130.553333,62.4533333 134.94,60.96 C139.326667,59.4666667 143.06,57.3666667 146.14,54.66 C149.22,51.9533333 151.6,48.64 153.28,44.72 C154.96,40.8 155.8,36.46 155.8,31.7 C155.8,26.8466667 154.96,22.4833333 153.28,18.61 C151.6,14.7366667 149.22,11.4233333 146.14,8.67 C143.06,5.91666667 139.326667,3.81666667 134.94,2.37 C130.553333,0.923333333 125.606667,0.2 120.1,0.2 L120.1,0.2 L84.82,0.2 L84.82,101 L105.82,101 Z M120.1,45.7 L105.82,45.7 L105.82,17.7 L120.1,17.7 C124.766667,17.7 128.383333,18.9833333 130.95,21.55 C133.516667,24.1166667 134.8,27.5 134.8,31.7 C134.8,35.9 133.516667,39.2833333 130.95,41.85 C128.383333,44.4166667 124.766667,45.7 120.1,45.7 L120.1,45.7 Z" id="UP" fill-rule="nonzero"></path>
                    </g>
                </g>
                <path d="M35,163.4 C40.2266667,163.4 44.94,162.7 49.14,161.3 C53.34,159.9 56.9333333,157.94 59.92,155.42 C62.9066667,152.9 65.2166667,149.866667 66.85,146.32 C68.4833333,142.773333 69.3,138.806667 69.3,134.42 C69.3,126.673333 67.1066667,120.163333 62.72,114.89 C58.3333333,109.616667 51.94,105.813333 43.54,103.48 L43.54,103.48 L32.34,100.4 C24.22,98.0666667 20.16,93.54 20.16,86.82 C20.16,83.2733333 21.4666667,80.4266667 24.08,78.28 C26.6933333,76.1333333 30.2866667,75.06 34.86,75.06 C39.1533333,75.06 42.7,76.1333333 45.5,78.28 C48.3,80.4266667 49.7933333,83.4133333 49.98,87.24 L49.98,87.24 L67.76,87.24 C67.2933333,78.6533333 64.1433333,71.91 58.31,67.01 C52.4766667,62.11 44.8,59.66 35.28,59.66 C30.24,59.66 25.7133333,60.3133333 21.7,61.62 C17.6866667,62.9266667 14.28,64.8166667 11.48,67.29 C8.68,69.7633333 6.51,72.7266667 4.97,76.18 C3.43,79.6333333 2.66,83.46 2.66,87.66 C2.66,102.873333 11.34,112.86 28.7,117.62 L28.7,117.62 L39.34,120.7 C43.26,121.913333 46.2933333,123.78 48.44,126.3 C50.5866667,128.82 51.66,131.806667 51.66,135.26 C51.66,139.18 50.2366667,142.306667 47.39,144.64 C44.5433333,146.973333 40.5533333,148.14 35.42,148.14 C30.4733333,148.14 26.4833333,146.996667 23.45,144.71 C20.4166667,142.423333 18.8066667,139.273333 18.62,135.26 L18.62,135.26 L0.7,135.26 C0.886666667,139.553333 1.84333333,143.426667 3.57,146.88 C5.29666667,150.333333 7.65333333,153.296667 10.64,155.77 C13.6266667,158.243333 17.1966667,160.133333 21.35,161.44 C25.5033333,162.746667 30.0533333,163.4 35,163.4 Z M119,163.4 C123.106667,163.4 126.956667,162.91 130.55,161.93 C134.143333,160.95 137.363333,159.55 140.21,157.73 C143.056667,155.91 145.46,153.693333 147.42,151.08 C149.38,148.466667 150.78,145.573333 151.62,142.4 L151.62,142.4 L134.4,142.4 C133.28,144.64 131.39,146.343333 128.73,147.51 C126.07,148.676667 122.826667,149.26 119,149.26 C113.96,149.26 110.016667,147.813333 107.17,144.92 C104.323333,142.026667 102.9,138.013333 102.9,132.88 L102.9,132.88 L102.9,127.84 L152.32,127.84 L152.32,113.84 C152.32,109.266667 151.526667,105.113333 149.94,101.38 C148.353333,97.6466667 146.113333,94.4733333 143.22,91.86 C140.326667,89.2466667 136.826667,87.2166667 132.72,85.77 C128.613333,84.3233333 124.04,83.6 119,83.6 C113.96,83.6 109.363333,84.3 105.21,85.7 C101.056667,87.1 97.5333333,89.1066667 94.64,91.72 C91.7466667,94.3333333 89.5066667,97.5066667 87.92,101.24 C86.3333333,104.973333 85.54,109.126667 85.54,113.7 L85.54,113.7 L85.54,133.16 C85.54,137.733333 86.3333333,141.886667 87.92,145.62 C89.5066667,149.353333 91.7466667,152.526667 94.64,155.14 C97.5333333,157.753333 101.056667,159.783333 105.21,161.23 C109.363333,162.676667 113.96,163.4 119,163.4 Z M135.1,116.08 L102.9,116.08 L102.9,113.7 C102.9,108.66 104.323333,104.716667 107.17,101.87 C110.016667,99.0233333 113.96,97.6 119,97.6 C124.133333,97.6 128.1,99.0233333 130.9,101.87 C133.7,104.716667 135.1,108.706667 135.1,113.84 L135.1,113.84 L135.1,116.08 Z M191.8,162 L191.8,114.12 C191.8,109.266667 193.083333,105.44 195.65,102.64 C198.216667,99.84 201.74,98.44 206.22,98.44 C210.98,98.44 214.713333,99.8166667 217.42,102.57 C220.126667,105.323333 221.48,109.173333 221.48,114.12 L221.48,114.12 L221.48,118.18 L239.82,118.18 L239.82,112.58 C239.82,103.526667 237.486667,96.4333333 232.82,91.3 C228.153333,86.1666667 221.666667,83.6 213.36,83.6 C207.573333,83.6 202.813333,84.8833333 199.08,87.45 C195.346667,90.0166667 193.013333,93.6333333 192.08,98.3 L192.08,98.3 L190.82,98.3 L190.82,85 L174.3,85 L174.3,162 L191.8,162 Z M297.5,162 L324.24,85 L306.04,85 L290.36,134.84 C289.8,136.706667 289.356667,138.503333 289.03,140.23 C288.703333,141.956667 288.446667,143.473333 288.26,144.78 C288.073333,146.366667 287.98,147.86 287.98,149.26 L287.98,149.26 L287,149.26 C286.906667,147.86 286.766667,146.366667 286.58,144.78 C286.393333,143.473333 286.136667,141.956667 285.81,140.23 C285.483333,138.503333 284.993333,136.706667 284.34,134.84 L284.34,134.84 L267.96,85 L249.76,85 L276.92,162 L297.5,162 Z M371,163.4 C375.106667,163.4 378.956667,162.91 382.55,161.93 C386.143333,160.95 389.363333,159.55 392.21,157.73 C395.056667,155.91 397.46,153.693333 399.42,151.08 C401.38,148.466667 402.78,145.573333 403.62,142.4 L403.62,142.4 L386.4,142.4 C385.28,144.64 383.39,146.343333 380.73,147.51 C378.07,148.676667 374.826667,149.26 371,149.26 C365.96,149.26 362.016667,147.813333 359.17,144.92 C356.323333,142.026667 354.9,138.013333 354.9,132.88 L354.9,132.88 L354.9,127.84 L404.32,127.84 L404.32,113.84 C404.32,109.266667 403.526667,105.113333 401.94,101.38 C400.353333,97.6466667 398.113333,94.4733333 395.22,91.86 C392.326667,89.2466667 388.826667,87.2166667 384.72,85.77 C380.613333,84.3233333 376.04,83.6 371,83.6 C365.96,83.6 361.363333,84.3 357.21,85.7 C353.056667,87.1 349.533333,89.1066667 346.64,91.72 C343.746667,94.3333333 341.506667,97.5066667 339.92,101.24 C338.333333,104.973333 337.54,109.126667 337.54,113.7 L337.54,113.7 L337.54,133.16 C337.54,137.733333 338.333333,141.886667 339.92,145.62 C341.506667,149.353333 343.746667,152.526667 346.64,155.14 C349.533333,157.753333 353.056667,159.783333 357.21,161.23 C361.363333,162.676667 365.96,163.4 371,163.4 Z M387.1,116.08 L354.9,116.08 L354.9,113.7 C354.9,108.66 356.323333,104.716667 359.17,101.87 C362.016667,99.0233333 365.96,97.6 371,97.6 C376.133333,97.6 380.1,99.0233333 382.9,101.87 C385.7,104.716667 387.1,108.706667 387.1,113.84 L387.1,113.84 L387.1,116.08 Z M443.8,162 L443.8,114.12 C443.8,109.266667 445.083333,105.44 447.65,102.64 C450.216667,99.84 453.74,98.44 458.22,98.44 C462.98,98.44 466.713333,99.8166667 469.42,102.57 C472.126667,105.323333 473.48,109.173333 473.48,114.12 L473.48,114.12 L473.48,118.18 L491.82,118.18 L491.82,112.58 C491.82,103.526667 489.486667,96.4333333 484.82,91.3 C480.153333,86.1666667 473.666667,83.6 465.36,83.6 C459.573333,83.6 454.813333,84.8833333 451.08,87.45 C447.346667,90.0166667 445.013333,93.6333333 444.08,98.3 L444.08,98.3 L442.82,98.3 L442.82,85 L426.3,85 L426.3,162 L443.8,162 Z M539,163.4 C544.226667,163.4 548.94,162.7 553.14,161.3 C557.34,159.9 560.933333,157.94 563.92,155.42 C566.906667,152.9 569.216667,149.866667 570.85,146.32 C572.483333,142.773333 573.3,138.806667 573.3,134.42 C573.3,126.673333 571.106667,120.163333 566.72,114.89 C562.333333,109.616667 555.94,105.813333 547.54,103.48 L547.54,103.48 L536.34,100.4 C528.22,98.0666667 524.16,93.54 524.16,86.82 C524.16,83.2733333 525.466667,80.4266667 528.08,78.28 C530.693333,76.1333333 534.286667,75.06 538.86,75.06 C543.153333,75.06 546.7,76.1333333 549.5,78.28 C552.3,80.4266667 553.793333,83.4133333 553.98,87.24 L553.98,87.24 L571.76,87.24 C571.293333,78.6533333 568.143333,71.91 562.31,67.01 C556.476667,62.11 548.8,59.66 539.28,59.66 C534.24,59.66 529.713333,60.3133333 525.7,61.62 C521.686667,62.9266667 518.28,64.8166667 515.48,67.29 C512.68,69.7633333 510.51,72.7266667 508.97,76.18 C507.43,79.6333333 506.66,83.46 506.66,87.66 C506.66,102.873333 515.34,112.86 532.7,117.62 L532.7,117.62 L543.34,120.7 C547.26,121.913333 550.293333,123.78 552.44,126.3 C554.586667,128.82 555.66,131.806667 555.66,135.26 C555.66,139.18 554.236667,142.306667 551.39,144.64 C548.543333,146.973333 544.553333,148.14 539.42,148.14 C534.473333,148.14 530.483333,146.996667 527.45,144.71 C524.416667,142.423333 522.806667,139.273333 522.62,135.26 L522.62,135.26 L504.7,135.26 C504.886667,139.553333 505.843333,143.426667 507.57,146.88 C509.296667,150.333333 511.653333,153.296667 514.64,155.77 C517.626667,158.243333 521.196667,160.133333 525.35,161.44 C529.503333,162.746667 534.053333,163.4 539,163.4 Z M628.6,73.38 C631.586667,73.38 634.013333,72.54 635.88,70.86 C637.746667,69.18 638.68,66.94 638.68,64.14 C638.68,61.4333333 637.77,59.2166667 635.95,57.49 C634.13,55.7633333 631.726667,54.9 628.74,54.9 L628.74,54.9 L625.1,54.9 C622.113333,54.9 619.71,55.7633333 617.89,57.49 C616.07,59.2166667 615.16,61.4333333 615.16,64.14 C615.16,66.94 616.07,69.18 617.89,70.86 C619.71,72.54 622.113333,73.38 625.1,73.38 L625.1,73.38 L628.6,73.38 Z M659.26,162 L659.26,146.04 L637,146.04 L637,85 L596.12,85 L596.12,100.82 L620.2,100.82 L620.2,146.04 L592.62,146.04 L592.62,162 L659.26,162 Z M700,163.4 C705.6,163.4 710.22,162.093333 713.86,159.48 C717.5,156.866667 719.74,153.226667 720.58,148.56 L720.58,148.56 L721.98,148.56 L721.98,162 L738.78,162 L738.78,59.8 L721.28,59.8 L721.28,85 C721.28,86.2133333 721.303333,87.59 721.35,89.13 C721.396667,90.67 721.513333,92.14 721.7,93.54 L721.7,93.54 L721.98,98.3 L720.58,98.3 C719.74,93.7266667 717.5,90.1333333 713.86,87.52 C710.22,84.9066667 705.6,83.6 700,83.6 C696.08,83.6 692.486667,84.3 689.22,85.7 C685.953333,87.1 683.153333,89.1066667 680.82,91.72 C678.486667,94.3333333 676.69,97.4833333 675.43,101.17 C674.17,104.856667 673.54,109.033333 673.54,113.7 L673.54,113.7 L673.54,132.88 C673.54,137.546667 674.17,141.77 675.43,145.55 C676.69,149.33 678.486667,152.55 680.82,155.21 C683.153333,157.87 685.953333,159.9 689.22,161.3 C692.486667,162.7 696.08,163.4 700,163.4 Z M706.3,148.14 C701.54,148.14 697.806667,146.716667 695.1,143.87 C692.393333,141.023333 691.04,137.22 691.04,132.46 L691.04,132.46 L691.04,114.12 C691.04,109.36 692.393333,105.603333 695.1,102.85 C697.806667,100.096667 701.54,98.72 706.3,98.72 C710.78,98.72 714.396667,100.12 717.15,102.92 C719.903333,105.72 721.28,109.453333 721.28,114.12 L721.28,114.12 L721.28,132.88 C721.28,137.453333 719.926667,141.14 717.22,143.94 C714.513333,146.74 710.873333,148.14 706.3,148.14 Z M791,163.4 C795.106667,163.4 798.956667,162.91 802.55,161.93 C806.143333,160.95 809.363333,159.55 812.21,157.73 C815.056667,155.91 817.46,153.693333 819.42,151.08 C821.38,148.466667 822.78,145.573333 823.62,142.4 L823.62,142.4 L806.4,142.4 C805.28,144.64 803.39,146.343333 800.73,147.51 C798.07,148.676667 794.826667,149.26 791,149.26 C785.96,149.26 782.016667,147.813333 779.17,144.92 C776.323333,142.026667 774.9,138.013333 774.9,132.88 L774.9,132.88 L774.9,127.84 L824.32,127.84 L824.32,113.84 C824.32,109.266667 823.526667,105.113333 821.94,101.38 C820.353333,97.6466667 818.113333,94.4733333 815.22,91.86 C812.326667,89.2466667 808.826667,87.2166667 804.72,85.77 C800.613333,84.3233333 796.04,83.6 791,83.6 C785.96,83.6 781.363333,84.3 777.21,85.7 C773.056667,87.1 769.533333,89.1066667 766.64,91.72 C763.746667,94.3333333 761.506667,97.5066667 759.92,101.24 C758.333333,104.973333 757.54,109.126667 757.54,113.7 L757.54,113.7 L757.54,133.16 C757.54,137.733333 758.333333,141.886667 759.92,145.62 C761.506667,149.353333 763.746667,152.526667 766.64,155.14 C769.533333,157.753333 773.056667,159.783333 777.21,161.23 C781.363333,162.676667 785.96,163.4 791,163.4 Z M807.1,116.08 L774.9,116.08 L774.9,113.7 C774.9,108.66 776.323333,104.716667 779.17,101.87 C782.016667,99.0233333 785.96,97.6 791,97.6 C796.133333,97.6 800.1,99.0233333 802.9,101.87 C805.7,104.716667 807.1,108.706667 807.1,113.84 L807.1,113.84 L807.1,116.08 Z" id="ServerSide" fill="#282828" fill-rule="nonzero"></path>
            </g>
        </g>
    </g>
</svg>