<?xml version="1.0" encoding="UTF-8"?>
<svg width="60px" height="50px" viewBox="0 0 60 50" version="1.1" xmlns="http://www.w3.org/2000/svg" xmlns:xlink="http://www.w3.org/1999/xlink">
    <!-- Generator: Sketch 57.1 (83088) - https://sketch.com -->
    <title>Twitter</title>
    <desc>Created with Sketch.</desc>
    <g id="01.00:-Homepage" stroke="none" stroke-width="1" fill="none" fill-rule="evenodd">
        <g id="HD_00:-Homepage" transform="translate(-965.000000, -788.000000)" fill="#1DA1F1" fill-rule="nonzero">
            <g id="Right-Side" transform="translate(820.000000, 164.000000)">
                <g id="Stay-In-touch" transform="translate(67.000000, 570.000000)">
                    <g id="Social" transform="translate(77.000000, 54.000000)">
                        <g id="Twitter" transform="translate(0.000000, 0.000000)">
                            <path d="M60.7886905,6.47321429 C58.5891,7.44977738 56.2313988,8.10546905 53.7527905,8.4030881 C56.2825524,6.88709048 58.2263762,4.4875369 59.1378345,1.63225476 C56.7754833,3.03199405 54.1480655,4.05040952 51.3625369,4.59914405 C49.130394,2.21819167 45.9495905,0.734747619 42.4293155,0.734747619 C35.6677833,0.734747619 30.1850821,6.21279762 30.1850821,12.974331 C30.1850821,13.9322917 30.2966893,14.8670012 30.5059524,15.7645095 C20.3311012,15.2529762 11.3141738,10.3794643 5.2734381,2.97154048 C4.21782024,4.78515595 3.61793214,6.88709048 3.61793214,9.12853452 C3.61793214,13.374256 5.77567024,17.1223964 9.06342976,19.3219869 C7.05450119,19.2568821 5.16648095,18.7034976 3.515625,17.7873881 C3.515625,17.8385417 3.515625,17.8896952 3.515625,17.9408488 C3.515625,23.8746286 7.73809524,28.817894 13.3324036,29.9479167 C12.3093381,30.2269345 11.225819,30.375744 10.1097476,30.375744 C9.31919643,30.375744 8.55189762,30.3013393 7.8032,30.1525298 C9.3657,35.0120905 13.8857893,38.5602679 19.238281,38.6579238 C15.0530131,41.9410345 9.77492619,43.8941595 4.03645833,43.8941595 C3.04594524,43.8941595 2.07403333,43.838356 1.12072167,43.7220988 C6.53366786,47.2005214 12.9696798,49.2234 19.8846726,49.2234 C42.4014143,49.2234 54.7154024,30.5710571 54.7154024,14.3973214 C54.7154024,13.8671881 54.7014512,13.3324036 54.68285,12.8115702 C57.0731024,11.0863095 59.1471357,8.92857143 60.7886905,6.47321429 Z" id="Path"></path>
                        </g>
                    </g>
                </g>
            </g>
        </g>
    </g>
</svg>